<svg x="0" y="0" width="3920" height="1960" viewBox="0 0 4573.333333333334 2286.666666666667" xmlns="http://www.w3.org/2000/svg" xmlns:xlink="http://www.w3.org/1999/xlink" xmlns:fi="http://pattern.flaticon.com/"><rect x="0px" y="0px" width="100%" height="100%" opacity="1" fill="#ffffff"/><defs><path d="M793.945,761.744c0-51.26-8.874-88.787-26.365-111.523c-11.248-14.615-24.796-21.336-35.449-23.115l-141.333-49.869   c-51.298-17.104-67.438-30.725-72.228-36.244c42.001-40.84,52.373-99.988,54.933-127.477   c21.995-15.043,29.707-33.239,32.155-46.802c5.838-32.435-13.374-62.264-23.791-75.596c-2.523-22.968-6.546-44.05-11.717-63.534   h5.79V100.295h32.772c2.601,12.512,4.947,28.435,6.631,48.575c-7.447,10.704-16.185,32.525-19.646,79.593l-1.988,27.192h99.438   l-2.229-27.394c-2.907-35.892-15.504-60.523-24.348-73.886c-1.458-20.848-3.711-38.602-6.486-54.081h57.904V24.277h-86.388   c-11.229-13.643-23.109-17.416-32.622-17.416H422.311v17.416H75.954v76.019h142.05v127.289h5.788   c-5.169,19.483-9.191,40.566-11.715,63.534c-10.417,13.333-29.632,43.163-23.791,75.596c2.448,13.563,10.156,31.759,32.156,46.8   c2.571,27.436,12.953,86.402,54.945,127.457c-4.774,5.504-20.971,19.174-72.662,36.406L61.961,627.055   C43.947,629.779,0,648.09,0,761.744v25.34h793.945V761.744z M51.604,736.404c3.192-40.754,13.772-56.133,18.693-59.111   l148.882-51.98c68.186-22.729,102.443-47.375,107.838-77.576c3.425-19.262-6.25-34.807-14.277-41.162   c-41.6-38.119-42.463-107.383-42.463-108.014v-15.667l-14.007-6.999c-10.788-5.384-16.863-11.468-18.09-18.09   c-2.409-13.011,10.358-32.01,16.843-39.095l5.889-6.314l0.818-8.585c2.695-28.644,7.598-54.19,14.595-76.226h241.292   c7.003,22.035,11.899,47.582,14.6,76.226l0.815,8.585l5.891,6.314c6.271,6.728,19.229,25.882,16.849,39.021   c-1.187,6.645-7.283,12.755-18.1,18.162l-14.006,6.999v15.666c0,0.695-1.149,70.17-41.162,106.914   c-9.331,7.455-19.005,23-15.576,42.262c5.396,30.201,39.653,54.85,107.417,77.43l147.706,52.129h1.594   c4.93,2.994,15.508,18.357,18.697,59.111L51.604,736.404L51.604,736.404z" transform="matrix(0.07557198405265808 0 0 0.07557198405265808 263 122)" id="L1_178"/><path d="M421.054,414.843c-4.142,0-7.5,3.358-7.5,7.5v70.514c0,2.283-1.858,4.141-4.141,4.141h-40.317V349.301    c0-4.142-3.358-7.5-7.5-7.5c-4.142,0-7.5,3.358-7.5,7.5v147.698h-81.185l23.543-25.9c2.572-2.83,3.785-6.861,3.244-10.787    c-0.01-0.076-0.022-0.152-0.035-0.228L277.24,327.617l6.041-9.094c3.34,2.372,5.913,4.656,10.738,4.656    c4.908,0,9.497-2.747,11.755-7.269v-0.001l23.65-47.4l53.876,20.865c1.949,0.836,30.252,13.582,30.252,47.238v50.73    c-0.001,4.141,3.357,7.5,7.5,7.5c4.142,0,7.5-3.358,7.5-7.5v-50.73c0-44.344-37.969-60.463-39.585-61.128    c-0.047-0.02-0.095-0.039-0.143-0.057l-89.668-34.726v-21.03c14.242-11.076,24.117-27.495,26.596-46.227    c7.101-0.5,13.69-3.152,19.071-7.779c7.027-6.043,11.059-14.838,11.059-24.126c0-7.708-2.781-15.068-7.737-20.803V92.953    C348.144,41.699,306.446,0,255.192,0c-51.254,0-92.952,41.699-92.952,92.953v28.511c-5.009,5.677-7.733,12.665-7.733,20.074    c0,9.291,4.03,18.085,11.059,24.129c5.377,4.625,11.962,7.274,19.061,7.775c2.499,19.083,12.662,36.114,28.117,47.339v19.92    l-89.571,34.725c-0.047,0.018-0.094,0.037-0.141,0.056c-1.617,0.665-39.585,16.784-39.585,61.128v156.245    c0,10.555,8.587,19.142,19.142,19.142h71.457c4.142,0,7.5-3.358,7.5-7.5c0-4.142-3.358-7.5-7.5-7.5h-16.137V349.301    c0-4.142-3.358-7.5-7.5-7.5c-4.142,0-7.5,3.358-7.5,7.5v147.698h-40.319c-2.283,0-4.141-1.858-4.141-4.141V336.611    c0-33.769,28.493-46.486,30.243-47.234l53.834-20.87l23.652,47.402c2.263,4.533,6.858,7.27,11.756,7.27    c4.801,0,7.349-2.249,10.738-4.656l6.041,9.094l-22.421,132.468c-0.013,0.075-0.024,0.15-0.035,0.226    c-0.542,3.924,0.671,7.957,3.244,10.789l23.543,25.9h-29.995c-4.142,0-7.5,3.358-7.5,7.5s3.358,7.5,7.5,7.5h200.365    c10.555,0,19.142-8.588,19.142-19.142v-70.514C428.554,418.201,425.196,414.843,421.054,414.843z M315.375,263.069l-22.049,44.19    c-0.548-0.389-12.233-8.691-26.517-18.834c6.198-7.651-1.053,1.299,27.235-33.617L315.375,263.069z M271.043,309.833l-5.718,8.607    h-18.703l-5.718-8.607l15.07-10.703L271.043,309.833z M227.743,243.121v-14.036c9.112,3.673,18.85,5.376,28.36,5.376    c9.833,0,19.476-2.096,28.052-5.846v14.567l-28.181,34.785L227.743,243.121z M340.881,141.539    c-0.001,4.913-2.129,9.562-5.839,12.753c-2.453,2.11-5.416,3.459-8.661,3.987v-33.477    C335.001,126.202,340.881,133.352,340.881,141.539z M184.007,158.279c-8.718-1.415-14.5-8.623-14.5-16.741    c0-8.018,6.647-14.544,14.5-16.359V158.279z M184.41,109.896c-2.389,0.274-5.127,0.921-7.168,1.615V92.953    c0-42.983,34.968-77.952,77.951-77.952c42.983,0,77.951,34.969,77.951,77.952v18.043c-2.18-0.663-4.441-1.101-6.762-1.307    c0-7.237,0.063-5.841-23.612-31.294c-4.354-4.678-11.556-5.658-17.037-2.077c-26.13,17.069-58.005,25.644-87.415,23.532    C191.867,99.367,185.991,103.616,184.41,109.896z M199.008,164.184v-46.792v-2.465c32.375,1.896,66.318-7.722,93.739-25.283    c10.858,11.658,16.738,17.773,18.634,20.099c0,5.884,0,47.705,0,54.44c0,30.447-24.826,55.276-55.277,55.276    C221.91,219.46,199.008,192.934,199.008,164.184z M218.623,307.259l-22.049-44.19l21.293-8.247l27.241,33.625    C231.255,298.284,219.88,306.366,218.623,307.259z M227.228,461.702l21.709-128.263h14.071l21.709,128.263l-28.744,31.623    L227.228,461.702z" transform="matrix(0.1171875 0 0 0.1171875 268 262)" id="L1_179"/><g transform="matrix(0.07500000298023224 0 0 0.07500000298023224 96 13.999999046325684)" id="L1_181"><path d="M214.418,263.604v463.304h131.209V574.348h108.967V726.91h131.211V263.604L400.111,139.322L214.418,263.604z    M334.729,552.554h-65.38v-65.382h65.38V552.554z M334.729,454.482h-65.38v-65.376h65.38V454.482z M334.729,356.414h-65.38v-65.382   h65.38V356.414z M465.49,291.032h65.383v65.382H465.49V291.032z M465.49,389.105h65.383v65.376H465.49V389.105z M465.49,487.172   h65.383v65.382H465.49V487.172z M432.805,552.554h-65.384v-65.382h65.384V552.554z M432.805,454.482h-65.384v-65.376h65.384   V454.482z M432.805,356.414h-65.384v-65.382h65.384V356.414z"/><path d="M394.047,117.16 406.176,117.16 597.959,245.506 658.913,245.506 400.111,73.09 141.31,245.506 202.262,245.506z"/><path d="M783.654,452.672H616.572v274.236h167.082V452.672L783.654,452.672z M732.805,649.501H667.43V584.12h65.375V649.501z    M732.805,552.554H667.43v-65.382h65.375V552.554z"/><rect x="616px" y="411px" width="183px" height="19px"/><path d="M183.43,452.672H16.344v274.236H183.43V452.672z M132.572,649.501H67.191V584.12h65.381V649.501L132.572,649.501z    M132.572,552.554H67.191v-65.382h65.381V552.554L132.572,552.554z"/><rect x="0px" y="411px" width="183px" height="19px"/></g></defs><g fi:class="KUsePattern" opacity="0.13"><pattern id="pattern_L1_178" width="350" height="350" patternUnits="userSpaceOnUse"><use xlink:href="#L1_178" x="-350" y="-350"/><use xlink:href="#L1_178" x="0" y="-350"/><use xlink:href="#L1_178" x="350" y="-350"/><use xlink:href="#L1_178" x="-350" y="0"/><use xlink:href="#L1_178" x="0" y="0"/><use xlink:href="#L1_178" x="350" y="0"/><use xlink:href="#L1_178" x="-350" y="350"/><use xlink:href="#L1_178" x="0" y="350"/><use xlink:href="#L1_178" x="350" y="350"/></pattern><rect x="0" y="0" width="100%" height="100%" fill="url(#pattern_L1_178)"/></g><g fi:class="KUsePattern" opacity="0.17"><pattern id="pattern_L1_179" width="350" height="350" patternUnits="userSpaceOnUse"><use xlink:href="#L1_179" x="-350" y="-350"/><use xlink:href="#L1_179" x="0" y="-350"/><use xlink:href="#L1_179" x="350" y="-350"/><use xlink:href="#L1_179" x="-350" y="0"/><use xlink:href="#L1_179" x="0" y="0"/><use xlink:href="#L1_179" x="350" y="0"/><use xlink:href="#L1_179" x="-350" y="350"/><use xlink:href="#L1_179" x="0" y="350"/><use xlink:href="#L1_179" x="350" y="350"/></pattern><rect x="0" y="0" width="100%" height="100%" fill="url(#pattern_L1_179)"/></g><g fi:class="KUsePattern" opacity="0.18"><pattern id="pattern_L1_181" width="350" height="350" patternUnits="userSpaceOnUse"><use xlink:href="#L1_181" x="-350" y="-350"/><use xlink:href="#L1_181" x="0" y="-350"/><use xlink:href="#L1_181" x="350" y="-350"/><use xlink:href="#L1_181" x="-350" y="0"/><use xlink:href="#L1_181" x="0" y="0"/><use xlink:href="#L1_181" x="350" y="0"/><use xlink:href="#L1_181" x="-350" y="350"/><use xlink:href="#L1_181" x="0" y="350"/><use xlink:href="#L1_181" x="350" y="350"/></pattern><rect x="0" y="0" width="100%" height="100%" fill="url(#pattern_L1_181)"/></g></svg>